<?xml version="1.0" standalone="no"?>
<!DOCTYPE svg PUBLIC "-//W3C//DTD SVG 20010904//EN"
 "http://www.w3.org/TR/2001/REC-SVG-20010904/DTD/svg10.dtd">
<svg version="1.0" xmlns="http://www.w3.org/2000/svg"
 width="240.000000pt" height="240.000000pt" viewBox="0 0 240.000000 240.000000"
 preserveAspectRatio="xMidYMid meet">
<metadata>
Created by potrace 1.11, written by Peter Selinger 2001-2013
</metadata>
<g transform="translate(0.000000,240.000000) scale(0.100000,-0.100000)"
fill="#000000" stroke="none">
<path d="M1514 2320 c-88 -19 -149 -123 -184 -310 l-10 -55 -509 -2 c-613 -3
-648 -5 -665 -28 -14 -19 -14 -50 -2 -570 3 -137 8 -371 12 -520 11 -531 7
-475 38 -501 23 -21 38 -24 104 -25 42 0 257 -1 476 -2 l399 -3 28 -44 c32
-51 79 -94 133 -122 47 -24 69 -29 124 -29 112 1 201 55 250 154 l34 67 116 1
c65 0 167 2 227 4 61 1 136 3 168 4 43 1 57 5 57 16 0 15 -34 38 -43 29 -3 -3
-125 -8 -271 -11 -264 -5 -266 -5 -267 16 -1 12 -2 24 -3 29 -3 10 -18 86 -19
92 0 3 -8 31 -18 63 l-17 57 41 29 c23 16 52 40 65 53 21 24 28 25 160 26 330
4 416 16 384 55 -7 8 -24 13 -40 11 -15 -2 -112 -6 -215 -9 -103 -3 -191 -6
-195 -6 -39 -6 -42 0 -20 49 20 46 30 179 18 242 -5 24 -3 25 60 28 250 10
338 13 357 13 24 -1 40 29 21 40 -10 7 -191 5 -407 -5 -59 -2 -65 0 -84 26
-28 38 -84 75 -139 91 -43 13 -156 15 -204 4 -18 -5 -23 0 -29 26 -4 18 -9 37
-11 42 -27 83 -27 93 2 118 25 22 39 25 119 27 49 1 133 3 185 5 52 2 192 6
310 9 187 6 217 9 228 24 10 14 10 19 -2 27 -14 11 -39 11 -503 2 l-232 -5 82
81 c45 45 89 91 97 102 13 17 41 76 46 95 1 3 5 20 9 38 4 17 13 32 19 33 6 1
101 3 211 5 219 4 245 7 245 29 0 18 12 17 -244 19 l-209 1 -2 76 c-4 113 -32
187 -91 238 -55 49 -120 66 -190 51z m44 -217 c6 -16 10 -55 9 -88 l-2 -59
-57 -1 c-53 -1 -58 1 -58 20 0 12 7 30 15 41 8 10 15 25 15 33 0 22 40 81 55
81 7 0 17 -12 23 -27z m-243 -380 l2 -173 -26 -1 c-445 -12 -823 -15 -844 -6
-17 6 -18 20 -15 161 2 85 5 157 8 160 14 13 89 17 400 22 184 3 335 6 336 7
1 1 33 2 70 2 l67 0 2 -172z m241 130 c-14 -117 -63 -204 -148 -258 l-27 -17
4 84 c4 91 30 219 46 229 6 3 38 7 71 8 l59 1 -5 -47z m-366 -401 c-102 -79
-181 -187 -205 -281 l-11 -46 -240 0 c-262 -1 -290 1 -292 18 0 7 -3 78 -5
158 -4 127 -2 147 12 156 9 5 97 11 196 12 99 1 180 3 181 4 2 1 92 3 201 4
l198 3 -35 -28z m168 -87 c-3 -3 3 -29 12 -58 l18 -52 -48 -45 c-26 -25 -49
-51 -52 -59 -2 -7 -20 -15 -40 -17 l-36 -4 10 37 c21 76 102 203 130 203 6 0
9 -2 6 -5z m-90 -326 c1 -26 8 -61 16 -77 8 -16 13 -32 10 -34 -3 -3 15 -26
39 -51 47 -48 97 -67 122 -47 23 19 18 38 -16 69 -36 33 -37 71 -2 115 l23 28
11 -28 c6 -16 26 -71 45 -122 19 -52 36 -98 39 -103 4 -5 -2 -9 -12 -10 -10 0
-72 -3 -139 -5 l-121 -5 -17 26 c-17 26 -43 90 -52 130 -7 27 -13 148 -9 155
2 4 17 6 34 6 28 0 29 -1 29 -47z m333 31 c31 -17 51 -68 51 -134 1 -61 -18
-153 -29 -142 -3 3 -25 62 -49 131 -23 69 -45 129 -48 134 -6 9 12 17 42 20 7
0 22 -4 33 -9z m-624 -13 c-15 -39 35 -182 89 -254 13 -17 24 -33 24 -35 0 -3
-588 -4 -606 0 -20 4 -29 47 -28 132 2 129 3 137 19 144 8 3 77 8 153 12 75 3
138 7 139 8 1 1 50 3 109 4 88 3 106 1 101 -11z m593 -341 c0 -19 -73 -48
-118 -48 -41 1 -122 35 -122 52 0 8 214 19 233 12 4 -2 7 -9 7 -16z m-393 -17
c101 -66 215 -98 345 -97 43 1 80 -1 83 -3 2 -3 7 -36 11 -75 9 -94 9 -95 2
-129 -6 -29 -8 -30 -67 -31 l-61 -2 0 37 c0 54 -50 129 -107 160 -84 44 -214
-54 -218 -164 -1 -35 -25 -44 -98 -35 -26 4 -50 3 -53 -2 -3 -5 -10 -6 -15 -2
-6 3 -121 7 -257 9 -136 2 -255 4 -266 4 -17 1 -18 10 -13 149 5 157 9 177 35
187 9 3 131 8 272 11 140 3 255 6 256 7 1 1 27 2 57 1 41 0 65 -6 94 -25z
m407 -390 c16 -15 -51 -43 -101 -42 -63 1 -82 10 -56 28 27 19 142 29 157 14z"/>
</g>
</svg>
